<?xml version="1.0" standalone="no"?>
<!DOCTYPE svg PUBLIC "-//W3C//DTD SVG 20010904//EN"
 "http://www.w3.org/TR/2001/REC-SVG-20010904/DTD/svg10.dtd">
<svg version="1.0" xmlns="http://www.w3.org/2000/svg"
 width="15" height="18" viewBox="0 0 512.000000 512.000000"
 preserveAspectRatio="xMidYMid meet">

<g transform="translate(0.000000,512.000000) scale(0.100000,-0.100000)"
fill="7C7C7C" stroke="none">
<path d="M2361 4829 c-236 -28 -511 -132 -713 -271 -642 -443 -894 -1248 -613
-1959 81 -205 124 -270 512 -771 601 -775 821 -1109 943 -1432 21 -54 45 -103
54 -108 27 -15 51 8 70 69 27 87 132 302 220 448 150 249 316 480 731 1015
138 179 276 357 306 397 338 447 421 1045 218 1568 -84 216 -205 401 -374 570
-362 364 -845 533 -1354 474z m500 -98 c665 -136 1167 -683 1249 -1361 38
-318 -39 -678 -205 -958 -55 -93 -93 -144 -414 -557 -512 -660 -768 -1038
-892 -1321 -18 -41 -35 -74 -38 -74 -4 0 -26 43 -51 97 -137 298 -382 655
-960 1398 -328 422 -395 529 -469 750 -58 174 -74 281 -75 485 -1 204 11 288
65 465 178 578 692 1012 1299 1095 105 14 381 4 491 -19z"/>
<path d="M2410 4619 c-514 -57 -957 -385 -1162 -860 -334 -775 90 -1677 905
-1923 262 -80 573 -77 837 6 634 200 1051 826 989 1484 -42 462 -299 867 -699
1105 -253 150 -579 221 -870 188z m410 -99 c268 -55 497 -177 690 -370 256
-255 393 -585 393 -950 0 -285 -82 -546 -244 -775 -256 -360 -656 -566 -1099
-566 -288 0 -546 81 -777 244 -591 418 -744 1224 -349 1832 227 348 575 557
1016 609 72 9 275 -5 370 -24z"/>
<path d="M2013 3934 c-296 -207 -544 -383 -550 -392 -7 -9 -13 -43 -13 -78 0
-53 3 -65 22 -78 37 -26 58 -5 58 58 l0 53 509 357 c280 196 515 356 522 356
6 0 241 -160 520 -356 l509 -356 0 -54 c0 -63 21 -84 58 -58 19 13 22 25 22
78 0 34 -6 69 -12 78 -7 9 -231 169 -498 355 -596 417 -590 413 -600 413 -5 0
-251 -169 -547 -376z"/>
<path d="M1772 3598 c-15 -15 -16 -122 -2 -149 6 -10 20 -19 30 -19 19 0 20
-8 20 -280 0 -236 -2 -280 -14 -280 -32 0 -46 -30 -46 -95 0 -96 -2 -95 210
-95 212 0 210 -1 210 95 0 65 -14 95 -46 95 -12 0 -14 44 -14 280 0 272 1 280
20 280 27 0 40 29 40 90 0 93 6 90 -208 90 -133 0 -192 -4 -200 -12z m328 -78
c0 -6 -50 -10 -130 -10 -80 0 -130 4 -130 10 0 6 50 10 130 10 80 0 130 -4
130 -10z m-62 -372 l2 -278 -70 0 -70 0 0 280 0 281 68 -3 67 -3 3 -277z m60
-375 c3 -10 -27 -13 -127 -13 -120 0 -143 4 -124 24 13 13 246 2 251 -11z"/>
<path d="M2360 3591 c-5 -11 -10 -43 -10 -71 0 -61 13 -90 40 -90 19 0 20 -8
20 -280 0 -236 -2 -280 -14 -280 -32 0 -46 -30 -46 -95 0 -96 -2 -95 210 -95
212 0 210 -1 210 95 0 65 -14 95 -46 95 -12 0 -14 44 -14 280 0 263 1 280 18
280 32 0 42 22 42 90 0 38 -5 71 -12 78 -8 8 -67 12 -200 12 -175 0 -188 -1
-198 -19z m330 -71 c0 -6 -50 -10 -130 -10 -80 0 -130 4 -130 10 0 6 50 10
130 10 80 0 130 -4 130 -10z m-62 -372 l2 -278 -70 0 -70 0 0 280 0 281 68 -3
67 -3 3 -277z m62 -373 c0 -13 -21 -15 -130 -15 -119 0 -142 4 -123 23 3 4 62
7 130 7 103 0 123 -2 123 -15z"/>
<path d="M2950 3591 c-5 -11 -10 -43 -10 -71 0 -61 13 -90 40 -90 19 0 20 -8
20 -280 0 -228 -3 -280 -13 -280 -30 0 -47 -36 -47 -98 0 -93 -1 -92 210 -92
212 0 210 -1 210 95 0 65 -14 95 -46 95 -12 0 -14 44 -14 280 0 263 1 280 18
280 32 0 42 22 42 90 0 38 -5 71 -12 78 -8 8 -67 12 -200 12 -175 0 -188 -1
-198 -19z m330 -71 c0 -6 -50 -10 -130 -10 -80 0 -130 4 -130 10 0 6 50 10
130 10 80 0 130 -4 130 -10z m-60 -370 l0 -280 -70 0 -70 0 0 273 c0 151 3
277 7 280 3 4 35 7 70 7 l63 0 0 -280z m60 -375 c0 -13 -21 -15 -130 -15 -119
0 -142 4 -123 23 3 4 62 7 130 7 103 0 123 -2 123 -15z"/>
<path d="M1576 2674 c-3 -9 -6 -49 -6 -89 0 -63 3 -76 19 -85 13 -7 334 -10
971 -10 637 0 958 3 971 10 16 9 19 22 19 85 0 88 -5 105 -34 105 -34 0 -46
-19 -46 -72 l0 -48 -910 0 -910 0 0 48 c0 26 -5 53 -12 60 -17 17 -55 15 -62
-4z"/>
</g>
</svg>
